<svg xmlns="http://www.w3.org/2000/svg" width="190" height="60" viewBox="0 0 190 60" fill="none"><path d="M37.26 58.71H23.85L47.18 0.259766H60.59L50.2 26.2998L37.26 58.7197V58.71Z" fill="#00ADC3"></path><path d="M13.7101 58.71H0.300049L23.6301 0.259766H37.04L13.7101 58.71Z" fill="#5C05D9"></path><path d="M69.2601 58.3706V27.3706H63.5001V18.6304H69.2601V16.1504C69.2601 5.72039 74.7001 0.650391 85.8801 0.650391C87.7301 0.650391 89.8101 0.880293 91.9101 1.30029V10.9302C90.8801 10.7702 89.9601 10.6802 89.1501 10.6802C85.5101 10.6802 83.3401 12.7206 83.3401 16.1406V18.6206H91.9101V27.3604H83.3401V54.3604C83.3401 56.5704 81.5401 58.3604 79.3401 58.3604H69.2601V58.3706Z" fill="white"></path><path d="M118.56 59.1011C107.59 59.1011 102.49 54.8209 102.49 45.6309V27.3711H96.03V18.6309H102.49V9.89111L116.57 4.37109V18.6309H125.53V27.3711H116.57V41.001C116.57 45.181 119 47.6807 123.08 47.6807C124 47.6807 124.76 47.641 125.52 47.561V58.4111C122.27 58.9211 120.46 59.1011 118.56 59.1011Z" fill="white"></path><path d="M143.05 59.3398C135.44 59.3398 130.33 54.8101 130.33 48.0601C130.33 44.6101 131.26 42.1701 133.25 40.3901C135.45 38.4001 139.05 37.0697 144.59 36.1997L155.88 34.4697V31.9697C155.88 28.4997 154.12 26.5898 150.92 26.5898C148.66 26.5898 145.94 27.46 145.35 31.46H131.66C132.72 23.15 139.71 18.4102 151 18.4102C164.11 18.4102 169.96 23.3399 169.96 34.3999V49.1797C169.96 52.5697 170.24 56.0098 170.69 58.3398H160.92C158.74 58.3398 156.98 56.63 156.92 54.46C156.91 54.06 156.9 53.6597 156.9 53.2397C155.03 57.1497 151.77 59.3198 143.07 59.3198L143.05 59.3398ZM150.91 40.6401C146.58 41.5401 144.48 43.3797 144.48 46.2397C144.48 48.8797 146.6 50.7998 149.51 50.7998C153.57 50.7998 156.41 48.1897 156.41 44.4497V39.54L150.9 40.6299L150.91 40.6401Z" fill="white"></path><path d="M182.64 58.3701C178.86 58.3701 175.79 55.3 175.79 51.52C175.79 47.74 178.86 44.6699 182.64 44.6699H182.87C186.65 44.6699 189.72 47.74 189.72 51.52C189.72 55.3 186.65 58.3701 182.87 58.3701H182.64Z" fill="white"></path></svg>