<svg width="18" height="18" viewBox="0 0 18 18" fill="none" xmlns="http://www.w3.org/2000/svg">
<path d="M8.07782 1.70725C8.65847 1.41692 9.34192 1.41692 9.92257 1.70725L15.4101 4.45101C16.3775 4.9347 16.3775 6.3152 15.4101 6.79889L9.92257 9.54266C9.34192 9.83298 8.65847 9.83298 8.07782 9.54266L2.59028 6.79889C1.6229 6.3152 1.6229 4.9347 2.59028 4.45101L8.07782 1.70725Z" fill="#C344C7"/>
<path d="M1.73612 12.8964C1.86229 12.6126 2.19471 12.4847 2.47859 12.6109L8.61938 15.3401C8.86179 15.4479 9.13849 15.4479 9.3809 15.3401L15.5217 12.6109C15.8056 12.4847 16.138 12.6126 16.2642 12.8964C16.3903 13.1803 16.2625 13.5127 15.9786 13.6389L9.8378 16.3682C9.30451 16.6052 8.69577 16.6052 8.16248 16.3682L2.02169 13.6389C1.7378 13.5127 1.60995 13.1803 1.73612 12.8964Z" fill="#C344C7"/>
<path d="M2.47859 9.23588C2.19471 9.10971 1.86229 9.23756 1.73612 9.52144C1.60995 9.80533 1.7378 10.1377 2.02169 10.2639L8.16248 12.9932C8.69577 13.2302 9.30451 13.2302 9.8378 12.9932L15.9786 10.2639C16.2625 10.1377 16.3903 9.80533 16.2642 9.52144C16.138 9.23756 15.8056 9.10971 15.5217 9.23588L9.3809 11.9651C9.13849 12.0729 8.86179 12.0729 8.61938 11.9651L2.47859 9.23588Z" fill="#C344C7"/>
</svg>
