<svg width="24" height="24" viewBox="0 0 24 24" fill="none" xmlns="http://www.w3.org/2000/svg">
<g clip-path="url(#clip0_99_3359)">
<path d="M10.125 5.02463V4.96575C10.125 4.32337 9.87487 3.71962 9.42037 3.26512C9.00787 2.85225 8.45887 2.625 7.875 2.625C7.3125 2.625 6.78225 2.83612 6.375 3.22087C5.96775 2.83612 5.4375 2.625 4.875 2.625C4.29112 2.625 3.74212 2.85225 3.32962 3.26512C2.87512 3.71962 2.625 4.32337 2.625 4.96575V5.02463C2.625 5.75138 2.93663 6.44513 3.47963 6.92775L6.375 9.50175L9.27 6.92813C9.81337 6.4455 10.125 5.75175 10.125 5.02463ZM6.375 8.49825L3.978 6.3675C3.59475 6.027 3.375 5.53763 3.375 5.02463V4.96575C3.375 4.52362 3.54713 4.10813 3.85988 3.79538C4.131 3.52425 4.49175 3.375 4.875 3.375C5.25825 3.375 5.619 3.52425 5.89012 3.79538L6.375 4.28025L6.85987 3.79538C7.40212 3.2535 8.34788 3.2535 8.89013 3.79538C9.20288 4.10813 9.375 4.52362 9.375 4.96575V5.02463C9.375 5.53725 9.15525 6.027 8.772 6.3675L6.375 8.49825Z" fill="#5B05D8"/>
<path d="M22.5 3.375H12.375V1.5C12.375 0.87975 11.8702 0.375 11.25 0.375H1.5C0.87975 0.375 0.375 0.87975 0.375 1.5V9.75C0.375 10.3702 0.87975 10.875 1.5 10.875H4.6995L5.32463 11.625H2.25C1.62975 11.625 1.125 12.1298 1.125 12.75V20.25C1.125 20.8703 1.62975 21.375 2.25 21.375H6.1995L7.809 23.3063C7.97775 23.5088 8.22563 23.625 8.48925 23.625C8.9775 23.625 9.375 23.2275 9.375 22.7393V21.375H13.5C14.1202 21.375 14.625 20.8703 14.625 20.25V13.875H15.375V15.2393C15.375 15.7275 15.7725 16.125 16.2607 16.125C16.5244 16.125 16.7722 16.0088 16.941 15.8063L18.5505 13.875H22.5C23.1203 13.875 23.625 13.3702 23.625 12.75V4.5C23.625 3.87975 23.1203 3.375 22.5 3.375ZM1.5 10.125C1.29338 10.125 1.125 9.957 1.125 9.75V1.5C1.125 1.293 1.29338 1.125 1.5 1.125H11.25C11.4566 1.125 11.625 1.293 11.625 1.5V9.75C11.625 9.957 11.4566 10.125 11.25 10.125H7.125V12.2393C7.125 12.3551 6.95925 12.4151 6.885 12.3259L5.0505 10.125H1.5ZM10.125 11.625H7.875V10.875H10.125V11.625ZM13.875 20.25C13.875 20.457 13.7066 20.625 13.5 20.625H8.625V22.7393C8.625 22.8551 8.45925 22.9151 8.385 22.8259L6.5505 20.625H2.25C2.04338 20.625 1.875 20.457 1.875 20.25V12.75C1.875 12.543 2.04338 12.375 2.25 12.375H5.94938L6.309 12.8063C6.47775 13.0088 6.72563 13.125 6.98925 13.125C7.431 13.125 7.79512 12.7987 7.86112 12.375H10.125V12.75C10.125 13.3702 10.6298 13.875 11.25 13.875H13.875V20.25ZM22.875 12.75C22.875 12.957 22.7066 13.125 22.5 13.125H18.1995L16.365 15.3259C16.2907 15.4144 16.125 15.3548 16.125 15.2393V13.125H11.25C11.0434 13.125 10.875 12.957 10.875 12.75V10.875H11.25C11.8702 10.875 12.375 10.3702 12.375 9.75V4.125H22.5C22.7066 4.125 22.875 4.293 22.875 4.5V12.75Z" fill="#001137"/>
<path d="M9.375 16.125C9.375 16.3474 9.42675 16.5566 9.51375 16.7464C9.35213 16.6031 9.17213 16.4809 8.9775 16.3837C9.222 16.1167 9.375 15.7646 9.375 15.375C9.375 14.5477 8.70225 13.875 7.875 13.875C7.04775 13.875 6.375 14.5477 6.375 15.375C6.375 15.7646 6.528 16.1167 6.7725 16.3837C6.57787 16.4809 6.39787 16.6031 6.23625 16.7464C6.32325 16.5566 6.375 16.3474 6.375 16.125C6.375 15.2977 5.70225 14.625 4.875 14.625C4.04775 14.625 3.375 15.2977 3.375 16.125C3.375 16.5247 3.53438 16.8859 3.79013 17.1551C3.09638 17.5388 2.625 18.2775 2.625 19.125V19.875H3.375V19.125C3.375 18.2977 4.04775 17.625 4.875 17.625C5.11125 17.625 5.33775 17.6812 5.544 17.7844C5.48475 17.9557 5.44125 18.135 5.42025 18.3221L5.25225 19.8334L5.99738 19.9163L6.16537 18.405C6.2625 17.5328 6.9975 16.875 7.875 16.875C8.7525 16.875 9.4875 17.5328 9.58463 18.405L9.75262 19.9163L10.4977 19.8334L10.3298 18.3221C10.3091 18.135 10.2652 17.9557 10.206 17.7844C10.4123 17.6812 10.6388 17.625 10.875 17.625C11.7023 17.625 12.375 18.2977 12.375 19.125V19.875H13.125V19.125C13.125 18.2775 12.6536 17.5388 11.9599 17.1551C12.2156 16.8859 12.375 16.5247 12.375 16.125C12.375 15.2977 11.7023 14.625 10.875 14.625C10.0477 14.625 9.375 15.2977 9.375 16.125ZM4.125 16.125C4.125 15.7114 4.46137 15.375 4.875 15.375C5.28863 15.375 5.625 15.7114 5.625 16.125C5.625 16.5386 5.28863 16.875 4.875 16.875C4.46137 16.875 4.125 16.5386 4.125 16.125ZM7.125 15.375C7.125 14.9614 7.46137 14.625 7.875 14.625C8.28863 14.625 8.625 14.9614 8.625 15.375C8.625 15.7886 8.28863 16.125 7.875 16.125C7.46137 16.125 7.125 15.7886 7.125 15.375ZM11.625 16.125C11.625 16.5386 11.2886 16.875 10.875 16.875C10.4614 16.875 10.125 16.5386 10.125 16.125C10.125 15.7114 10.4614 15.375 10.875 15.375C11.2886 15.375 11.625 15.7114 11.625 16.125Z" fill="#01ADC3"/>
<path d="M19.875 7.125H19.1925L19.2829 6.5835C19.3538 6.15712 19.2345 5.72362 18.9551 5.394C18.6758 5.064 18.2678 4.875 17.8358 4.875C17.3186 4.875 16.8698 5.22563 16.7441 5.727C16.6084 6.27075 16.3271 6.76725 15.9307 7.164L15.8201 7.27463C15.6953 7.182 15.5422 7.125 15.375 7.125H13.875C13.4614 7.125 13.125 7.46137 13.125 7.875V11.625C13.125 12.0386 13.4614 12.375 13.875 12.375H15.375C15.7024 12.375 15.978 12.1631 16.0804 11.8702C16.7456 12.2002 17.4765 12.375 18.2269 12.375H19.875C20.7023 12.375 21.375 11.7023 21.375 10.875V8.625C21.375 7.79775 20.7023 7.125 19.875 7.125ZM13.875 11.625V7.875H15.375L15.3754 11.625H13.875ZM20.625 10.875C20.625 11.2886 20.2886 11.625 19.875 11.625H18.2269C17.4825 11.625 16.7606 11.4221 16.125 11.0407V8.03025L16.461 7.69425C16.9534 7.20187 17.3032 6.58425 17.472 5.90887C17.5136 5.742 17.6632 5.625 17.8358 5.625C18.0469 5.625 18.2464 5.71725 18.3829 5.87888C18.5194 6.04013 18.5779 6.252 18.543 6.4605L18.3075 7.875H19.875C20.2886 7.875 20.625 8.21137 20.625 8.625V10.875Z" fill="#5B05D8"/>
</g>
<defs>
<clipPath id="clip0_99_3359">
<rect width="24" height="24" fill="white"/>
</clipPath>
</defs>
</svg>
